<?xml version="1.0" standalone="no"?>
<!DOCTYPE svg PUBLIC "-//W3C//DTD SVG 1.1//EN" "http://www.w3.org/Graphics/SVG/1.1/DTD/svg11.dtd" >
<svg xmlns="http://www.w3.org/2000/svg">
<metadata>
This is a custom SVG webfont generated by Font Squirrel.
Copyright   : Frucade Extended   2005 Michael Schmidt  httpwwwstyleforcenet
</metadata>
<defs>
<font id="FrucadeExtendedRegular" horiz-adv-x="1536" >
<font-face units-per-em="2048" ascent="1638" descent="-410" />
<missing-glyph horiz-adv-x="768" />
<glyph unicode=" "  horiz-adv-x="768" />
<glyph unicode="&#x09;" horiz-adv-x="768" />
<glyph unicode="&#xa0;" horiz-adv-x="768" />
<glyph unicode="!" horiz-adv-x="768" d="M0 510v1282h256v-1282h-256zM0 0v264h256v-264h-256z" />
<glyph unicode="&#x22;" horiz-adv-x="1280" d="M506 1280v512h262v-512h-262zM0 1280v512h262v-512h-262z" />
<glyph unicode="#" horiz-adv-x="1792" d="M518 774h244v244h-244v-244zM0 510v264h254v244h-254v264h254v254h264v-254h244v254h264v-254h254v-264h-254v-244h254v-264h-254v-254h-264v254h-244v-254h-264v254h-254z" />
<glyph unicode="$" horiz-adv-x="1792" d="M772 264h244v500h-244v-500zM264 1028h244v500h-244v-500zM0 254v264h264v-254h244v500h-254v254h-254v520h254v256h254v254h264v-254h254v-256h254v-264h-264v254h-244v-500h254v-254h254v-520h-254v-256h-254v-254h-264v254h-254v256h-254z" />
<glyph unicode="%" horiz-adv-x="2304" d="M1282 264h246v246h-246v-246zM1018 254v266h254v254h266v-254h254v-266h-254v-254h-266v254h-254zM264 1282h246v246h-246v-246zM0 1272v266h254v254h266v-254h254v-266h-254v-254h-266v254h-254zM0 0v264h254v256h256v254h254v254h254v254h254v256h256v254h264v-264 h-254v-256h-256v-254h-254v-254h-254v-254h-254v-256h-256v-254h-264z" />
<glyph unicode="&#x26;" horiz-adv-x="1792" d="M264 1028h498v500h-498v-500zM264 264h498v246h-254v254h-244v-500zM0 254v520h254v244h-254v520h254v254h518v-254h254v-520h-254v-498h254v-256h254v-264h-264v254h-244v-254h-518v254h-254z" />
<glyph unicode="'" horiz-adv-x="768" d="M0 1280v512h256v-512h-256z" />
<glyph unicode="(" horiz-adv-x="1280" d="M0 510v772h252v256h254v254h262v-264h-252v-256h-254v-752h254v-256h252v-264h-262v254h-254v256h-252z" />
<glyph unicode=")" horiz-adv-x="1280" d="M0 0v264h252v256h254v752h-254v256h-252v264h262v-254h254v-256h252v-772h-252v-256h-254v-254h-262z" />
<glyph unicode="*" horiz-adv-x="1792" d="M0 510v264h254v244h-254v264h264v-254h244v508h264v-508h244v254h264v-264h-254v-244h254v-264h-264v254h-244v-508h-264v508h-244v-254h-264z" />
<glyph unicode="+" horiz-adv-x="1280" d="M0 764v264h252v252h264v-252h252v-264h-252v-252h-264v252h-252z" />
<glyph unicode="," horiz-adv-x="1024" d="M0 6h252v506h260v-516h-252v-252h-260v262z" />
<glyph unicode="-" d="M0 768v256h1024v-256h-1024z" />
<glyph unicode="." horiz-adv-x="768" d="M0 0v256h256v-256h-256z" />
<glyph unicode="/" horiz-adv-x="2304" d="M0 0v264h254v256h256v254h254v254h254v254h254v256h256v254h264v-264h-254v-256h-256v-254h-254v-254h-254v-254h-254v-256h-256v-254h-264z" />
<glyph unicode="0" d="M264 264h496v1264h-496v-1264zM0 254v1284h254v254h516v-254h254v-1284h-254v-254h-516v254h-254z" />
<glyph unicode="1" horiz-adv-x="1280" d="M0 1018v264h252v256h254v254h262v-1792h-262v1272h-244v-254h-262z" />
<glyph unicode="2" d="M0 0v520h254v254h254v254h252v500h-496v-256h-264v266h254v254h516v-254h254v-520h-254v-254h-254v-254h-252v-246h760v-264h-1024z" />
<glyph unicode="3" d="M0 254v266h264v-256h496v500h-252v264h252v500h-496v-256h-264v266h254v254h516v-254h254v-520h-254v-244h254v-520h-254v-254h-516v254h-254z" />
<glyph unicode="4" horiz-adv-x="2048" d="M506 2v6h266v-6h-266zM264 774h754v754h-246v-256h-254v-254h-254v-244zM0 510v518h254v254h254v256h256v254h518v-1018h254v-264h-254v-510h-264v510h-1018z" />
<glyph unicode="5" d="M0 0v264h760v500h-760v1028h1024v-264h-760v-500h506v-254h254v-520h-254v-254h-770z" />
<glyph unicode="6" d="M264 264h496v500h-496v-500zM0 254v1284h254v254h516v-254h254v-266h-264v256h-496v-500h506v-254h254v-520h-254v-254h-516v254h-254z" />
<glyph unicode="7" d="M0 1528v264h1024v-520h-254v-254h-254v-1018h-262v1028h254v254h252v246h-760z" />
<glyph unicode="8" d="M264 1028h496v500h-496v-500zM264 264h496v500h-496v-500zM0 254v520h254v244h-254v520h254v254h516v-254h254v-520h-254v-244h254v-520h-254v-254h-516v254h-254z" />
<glyph unicode="9" d="M264 1028h496v500h-496v-500zM0 254v266h264v-256h496v500h-506v254h-254v520h254v254h516v-254h254v-1284h-254v-254h-516v254h-254z" />
<glyph unicode=":" horiz-adv-x="768" d="M0 1018v262h256v-262h-256zM0 512v262h256v-262h-256z" />
<glyph unicode=";" horiz-adv-x="1024" d="M252 1016v264h260v-264h-260zM0 8h252v764h260v-774h-252v-254h-260v264z" />
<glyph unicode="&#x3c;" horiz-adv-x="1280" d="M0 764v264h252v254h254v254h262v-264h-252v-254h-254v-244h254v-254h252v-264h-262v254h-254v254h-252z" />
<glyph unicode="=" d="M0 1018v262h1024v-262h-1024zM0 512v262h1024v-262h-1024z" />
<glyph unicode="&#x3e;" horiz-adv-x="1280" d="M0 256v264h252v254h254v244h-254v254h-252v264h262v-254h254v-254h252v-264h-252v-254h-254v-254h-262z" />
<glyph unicode="?" d="M254 0v264h262v-264h-262zM0 1272v266h254v254h516v-254h254v-520h-254v-254h-254v-254h-262v264h254v254h252v500h-496v-256h-264z" />
<glyph unicode="@" horiz-adv-x="2304" d="M512 768v256h256v256h256v-256h256v-256h256v256v256h256v-256v-256h-256v-256h-256v256h-256v256h-256v-256h256v-256h-256v256h-256zM1536 1280h-256v256h256v-256zM1280 1536h-256v256h256v-256zM1024 1792h-256v-256h256v256zM1024 256h256v-256h-256v256zM1024 256 h-256v-256h256v256zM768 1536h-256v256h256v-256zM768 0h-256v256h256v-256zM512 1536v-256h-256v256h256zM512 256h-256v256h256v-256zM256 1280v-256v-256v-256h-256v256v256v256h256z" />
<glyph unicode="A" d="M256 1024h512v512h-512v-512zM0 0v1536h256v256h512v-256h256v-1536h-256v768h-512v-768h-256z" />
<glyph unicode="B" d="M264 1028h496v500h-496v-500zM264 264h496v500h-496v-500zM0 0v1792h770v-254h254v-520h-254v-244h254v-520h-254v-254h-770z" />
<glyph unicode="C" d="M0 254v1284h254v254h770v-264h-760v-1264h760v-264h-770v254h-254z" />
<glyph unicode="D" d="M264 264h496v1264h-496v-1264zM0 0v1792h770v-254h254v-1284h-254v-254h-770z" />
<glyph unicode="E" d="M0 0v1792h1024v-264h-760v-500h760v-264h-760v-500h760v-264h-1024z" />
<glyph unicode="F" d="M0 0v1792h1024v-264h-760v-500h760v-264h-760v-764h-264z" />
<glyph unicode="G" d="M0 254v1284h254v254h770v-520h-264v256h-496v-1264h496v500h-252v264h516v-774h-254v-254h-516v254h-254z" />
<glyph unicode="H" d="M0 0v1792h264v-764h496v764h264v-1792h-264v764h-496v-764h-264z" />
<glyph unicode="I" horiz-adv-x="768" d="M0 0v1792h256v-1792h-256z" />
<glyph unicode="J" d="M0 254v266h264v-256h496v1528h264v-1538h-254v-254h-516v254h-254z" />
<glyph unicode="K" d="M0 0v1792h264v-764h244v254h252v510h264v-520h-254v-254h-254v-244h254v-254h254v-520h-264v510h-252v254h-244v-764h-264z" />
<glyph unicode="L" d="M0 0v1792h264v-1528h760v-264h-1024z" />
<glyph unicode="M" horiz-adv-x="1792" d="M0 0v1792h264v-510h254v-254h244v254h254v510h264v-1792h-264v1018h-244v-254h-264v254h-244v-1018h-264z" />
<glyph unicode="N" horiz-adv-x="1792" d="M0 0v1792h264v-510h254v-254h254v-254h244v1018h264v-1792h-264v510h-254v254h-254v254h-244v-1018h-264z" />
<glyph unicode="O" d="M264 264h496v1264h-496v-1264zM0 254v1284h254v254h516v-254h254v-1284h-254v-254h-516v254h-254z" />
<glyph unicode="P" d="M264 1028h496v500h-496v-500zM0 0v1792h770v-254h254v-520h-254v-254h-506v-764h-264z" />
<glyph unicode="Q" d="M264 264h496v1264h-496v-1264zM0 254v1284h254v254h516v-254h254v-1284h-254v-246h254v-264h-264v254h-506v256h-254z" />
<glyph unicode="R" d="M264 1028h496v500h-496v-500zM0 0v1792h770v-254h254v-520h-254v-244h254v-774h-264v764h-496v-764h-264z" />
<glyph unicode="S" d="M0 254v266h264v-256h496v500h-506v254h-254v520h254v254h516v-254h254v-266h-264v256h-496v-500h506v-254h254v-520h-254v-254h-516v254h-254z" />
<glyph unicode="T" horiz-adv-x="1792" d="M0 1528v264h1280v-264h-508v-1528h-264v1528h-508z" />
<glyph unicode="U" d="M0 254v1538h264v-1528h496v1528h264v-1538h-254v-254h-516v254h-254z" />
<glyph unicode="V" horiz-adv-x="1792" d="M0 510v1282h264v-1272h254v-256h244v256h254v1272h264v-1282h-254v-256h-254v-254h-264v254h-254v256h-254z" />
<glyph unicode="W" horiz-adv-x="1792" d="M0 254v1538h264v-1528h244v764h264v-764h244v1528h264v-1538h-254v-254h-264v254h-244v-254h-264v254h-254z" />
<glyph unicode="X" d="M0 0v774h254v244h-254v774h264v-764h496v764h264v-774h-254v-244h254v-774h-264v764h-496v-764h-264z" />
<glyph unicode="Y" horiz-adv-x="1792" d="M0 1272v520h264v-510h254v-254h244v254h254v510h264v-520h-254v-254h-254v-1018h-264v1018h-254v254h-254z" />
<glyph unicode="Z" horiz-adv-x="1792" d="M0 0v520h254v254h254v254h254v254h254v246h-1016v264h1280v-520h-254v-254h-254v-254h-254v-254h-254v-246h1016v-264h-1280z" />
<glyph unicode="[" horiz-adv-x="1280" d="M0 0v1792h768v-264h-506v-1264h506v-264h-768z" />
<glyph unicode="\" horiz-adv-x="2304" d="M0 1528v264h264v-254h256v-256h254v-254h254v-254h254v-254h256v-256h254v-264h-264v254h-256v256h-254v254h-254v254h-254v254h-256v256h-254z" />
<glyph unicode="]" horiz-adv-x="1280" d="M0 0v264h506v1264h-506v264h768v-1792h-768z" />
<glyph unicode="^" horiz-adv-x="1280" d="M0 1280v260h252v252h264v-252h252v-260h-262v252h-244v-252h-262z" />
<glyph unicode="_" d="M0 0v256h1024v-256h-1024z" />
<glyph unicode="`" horiz-adv-x="1024" d="M0 1532v260h260v-252h252v-260h-260v252h-252z" />
<glyph unicode="a" d="M264 264h496v752h-496v-752zM0 254v772h254v254h770v-1280h-770v254h-254z" />
<glyph unicode="b" d="M264 264h496v754h-496v-754zM0 0v1792h264v-510h506v-254h254v-774h-254v-254h-770z" />
<glyph unicode="c" d="M0 254v772h254v254h770v-264h-760v-752h760v-264h-770v254h-254z" />
<glyph unicode="d" d="M264 264h496v754h-496v-754zM0 254v774h254v254h506v510h264v-1792h-770v254h-254z" />
<glyph unicode="e" d="M264 772h496v244h-496v-244zM0 254v772h254v254h516v-254h254v-518h-760v-244h506v-264h-516v254h-254z" />
<glyph unicode="f" horiz-adv-x="1024" d="M0 0v1538h252v254h260v-264h-252v-500h252v-264h-252v-756h4v-6h-4v-2h-260z" />
<glyph unicode="g" d="M264 262h496v754h-496v-754zM0 252v774h254v254h770v-1538h-254v-254h-516v264h506v246h-506v254h-246v-2h-6v2h-2z" />
<glyph unicode="h" d="M0 0v1792h264v-510h506v-254h254v-1028h-264v1018h-496v-1018h-264z" />
<glyph unicode="i" horiz-adv-x="768" d="M0 1528v264h256v-264h-256zM0 0v1282h256v-1282h-256z" />
<glyph unicode="j" horiz-adv-x="1280" d="M506 1528v264h262v-264h-262zM0 -248h506v1266h-254v264h516v-1540h-252v-254h-516v264z" />
<glyph unicode="k" d="M0 0v1792h264v-1018h244v254h252v254h264v-264h-254v-254h-254v-244h254v-256h254v-264h-264v254h-252v256h-244v-510h-264z" />
<glyph unicode="l" horiz-adv-x="1024" d="M0 254v1538h260v-1528h252v-264h-260v254h-252z" />
<glyph unicode="m" horiz-adv-x="1792" d="M0 0v1280h518v-254h244v254h264v-254h254v-1026h-264v1016h-244v-1016h-264v1016h-244v-1016h-264z" />
<glyph unicode="n" d="M0 0v1280h264v-254h244v254h262v-254h254v-1026h-264v1016h-244v-254h-252v-762h-264z" />
<glyph unicode="o" d="M264 264h496v752h-496v-752zM0 254v772h254v254h516v-254h254v-772h-254v-254h-516v254h-254z" />
<glyph unicode="p" d="M264 262h496v754h-496v-754zM0 -512v1792h770v-254h254v-774h-254v-254h-506v-510h-264z" />
<glyph unicode="q" d="M264 262h496v754h-496v-754zM0 252v774h254v254h770v-1792h-264v510h-506v254h-254z" />
<glyph unicode="r" d="M0 0v1280h264v-254h244v254h516v-264h-508v-254h-252v-762h-264z" />
<glyph unicode="s" d="M0 0v264h760v244h-506v254h-254v264h254v254h770v-264h-760v-244h506v-254h254v-264h-254v-254h-770z" />
<glyph unicode="t" horiz-adv-x="1280" d="M0 1018v264h252v510h264v-510h252v-264h-252v-1018h-264v1018h-252z" />
<glyph unicode="u" d="M0 252v1028h270v-1008h484v1008h270v-1280h-772v252h-252z" />
<glyph unicode="v" d="M0 254v1026h264v-1016h496v1016h264v-1026h-254v-254h-516v254h-254z" />
<glyph unicode="w" horiz-adv-x="1792" d="M0 254v1026h264v-1016h244v508h264v-508h244v1016h264v-1026h-254v-254h-264v254h-244v-254h-264v254h-254z" />
<glyph unicode="x" d="M0 0v518h254v244h-254v518h264v-508h496v508h264v-518h-254v-244h254v-518h-264v508h-496v-508h-264z" />
<glyph unicode="y" d="M0 252v1028h264v-1018h496v1018h264v-1538h-254v-254h-516v264h506v246h-506v254h-254z" />
<glyph unicode="z" d="M0 0v518h254v254h506v244h-760v264h1024v-518h-254v-254h-506v-244h760v-264h-1024z" />
<glyph unicode="{" d="M0 764v264h254v510h254v254h516v-264h-508v-1264h508v-264h-516v254h-254v510h-254z" />
<glyph unicode="|" horiz-adv-x="768" d="M0 0v1792h256v-1792h-256z" />
<glyph unicode="}" d="M0 0v264h508v1264h-508v264h516v-254h254v-510h254v-264h-254v-510h-254v-254h-516z" />
<glyph unicode="~" d="M0 512v260h254v252h262v-252h244v252h264v-260h-254v-252h-262v252h-244v-252h-264z" />
<glyph unicode="&#xa1;" horiz-adv-x="768" d="M0 1528v264h256v-264h-256zM0 0v1282h256v-1282h-256z" />
<glyph unicode="&#xa2;" d="M264 520h244v752h-244v-752zM0 510v772h254v256h254v254h262v-254h254v-266h-254v-752h254v-266h-254v-254h-262v254h-254v256h-254z" />
<glyph unicode="&#xa3;" horiz-adv-x="1792" d="M0 0v264h254v500h-254v264h254v510h254v254h518v-254h254v-266h-264v256h-498v-500h254v-264h-254v-500h508v-264h-1026z" />
<glyph unicode="&#xa4;" horiz-adv-x="2048" />
<glyph unicode="&#xa5;" horiz-adv-x="1792" d="M0 1528v264h264v-254h254v-510h244v510h254v254h264v-264h-254v-510h-254v-246h254v-264h-254v-244h254v-266h-254v-254h-264v254h-254v266h254v244h-254v264h254v246h-254v510h-254z" />
<glyph unicode="&#xa6;" horiz-adv-x="768" d="M0 1018v774h256v-774h-256zM0 0v774h256v-774h-256z" />
<glyph unicode="&#xa7;" horiz-adv-x="1280" d="M262 1030h244v244h-244v-244zM0 254v266h262v-256h244v500h-254v256h-252v264h252v246h-252v520h252v254h264v-254h252v-266h-262v256h-244v-500h254v-256h252v-264h-252v-246h252v-520h-252v-254h-264v254h-252z" />
<glyph unicode="&#xa8;" horiz-adv-x="1280" d="M506 1536v256h262v-256h-262zM0 1536v256h262v-256h-262z" />
<glyph unicode="&#xa9;" horiz-adv-x="2048" d="M508 510v772h520v-264h-256v-244h256v-264h-520zM264 264h1008v1264h-1008v-1264zM0 254v1284h254v254h1028v-254h254v-1284h-254v-254h-1028v254h-254z" />
<glyph unicode="&#xaa;" d="M264 774h496v754h-496v-754zM0 764v774h254v254h516v-254h254v-1028h-770v254h-254zM0 0v264h1024v-264h-1024z" />
<glyph unicode="&#xab;" horiz-adv-x="1792" d="M518 1028h244v244h-244v-244zM518 520h244v244h-244v-244zM264 774h244v244h-244v-244zM0 764v264h254v254h254v254h264v-254h244v254h264v-264h-254v-254h-254v-244h254v-254h254v-264h-264v254h-244v-254h-264v254h-254v254h-254z" />
<glyph unicode="&#xac;" d="M0 508v260h1024v-512h-264v252h-760z" />
<glyph unicode="&#xad;" d="M0 768v256h1024v-256h-1024z" />
<glyph unicode="&#xae;" horiz-adv-x="2304" d="M774 1028h244v246h-244v-246zM510 510v1028h518v-254h254v-264h-254v-246h254v-264h-264v254h-244v-254h-264zM264 264h1264v1520h-1264v-1520zM0 254v1540h254v254h1284v-254h254v-1540h-254v-254h-1284v254h-254z" />
<glyph unicode="&#xaf;" d="M0 1536v256h1024v-256h-1024z" />
<glyph unicode="&#x2c9;" d="M0 1536v256h1024v-256h-1024z" />
<glyph unicode="&#xb0;" horiz-adv-x="1280" d="M262 1286h244v244h-244v-244zM0 1276v264h252v252h264v-252h252v-264h-252v-252h-264v252h-252z" />
<glyph unicode="&#xb1;" horiz-adv-x="1280" d="M0 1018v264h252v254h264v-254h252v-264h-252v-254h-264v254h-252zM0 256v264h768v-264h-768z" />
<glyph unicode="&#xb2;" horiz-adv-x="2048" />
<glyph unicode="&#xb3;" horiz-adv-x="1280" d="M0 256v264h506v244h-254v264h254v244h-506v264h516v-254h252v-264h-252v-244h252v-264h-252v-254h-516z" />
<glyph unicode="&#xb4;" horiz-adv-x="1024" d="M0 1280v260h252v252h260v-260h-252v-252h-260z" />
<glyph unicode="&#xb5;" horiz-adv-x="1792" d="M0 -2v1794h264v-1274h498v1274h264v-1284h-254v-244h254v-256h254v-264h-264v254h-254v256h-498v-256h-264z" />
<glyph unicode="&#x3bc;" horiz-adv-x="1792" d="M0 -2v1794h264v-1274h498v1274h264v-1284h-254v-244h254v-256h254v-264h-264v254h-254v256h-498v-256h-264z" />
<glyph unicode="&#xb6;" horiz-adv-x="2304" d="M0 1018v520h254v254h1538v-264h-254v-1528h-266v1528h-244v-1528h-264v764h-510v254h-254z" />
<glyph unicode="&#xb7;" horiz-adv-x="768" d="M0 768v256h256v-256h-256z" />
<glyph unicode="&#x2219;" horiz-adv-x="768" d="M0 768v256h256v-256h-256z" />
<glyph unicode="&#xb8;" horiz-adv-x="1280" d="M0 0v264h252v252h254v244h-254v264h264v-254h252v-262h-252v-254h-254v-254h-262z" />
<glyph unicode="&#xb9;" horiz-adv-x="1024" d="M0 1276v262h252v254h260v-1024h-260v508h-252z" />
<glyph unicode="&#xba;" horiz-adv-x="1280" d="M262 1286h244v244h-244v-244zM0 1276v264h252v252h264v-252h252v-264h-252v-252h-264v252h-252z" />
<glyph unicode="&#xbb;" d="M516 774h244v244h-244v-244zM0 512v262h254v244h-254v262h264v-252h244v252h262v-252h254v-264h-254v-252h-262v252h-244v-252h-264z" />
<glyph unicode="&#xbc;" horiz-adv-x="2560" d="M0 1018v264h254v254h266v-1018h244v510h256v508h264v-508h254v-510h246v254h264v-772h-264v254h-510v764h-246v-510h-254v-508h-264v508h-256v510h-254z" />
<glyph unicode="&#xbd;" horiz-adv-x="2560" d="M1538 518h246v246h-246v-246zM1274 0v264h254v244h-254v264h254v256h266v-256h254v-264h-254v-244h254v-264h-774zM0 1018v264h254v254h266v-1018h244v510h256v508h264v-518h-256v-510h-254v-508h-264v508h-256v510h-254z" />
<glyph unicode="&#xbe;" horiz-adv-x="2560" d="M0 254v264h254v246h-254v264h254v244h-254v264h264v-254h256v-264h-256v-246h256v-254h244v510h256v508h264v-508h254v-510h246v254h264v-772h-264v254h-510v764h-246v-510h-254v-508h-264v508h-246v-254h-264z" />
<glyph unicode="&#xbf;" d="M508 1528v264h262v-264h-262zM0 254v520h254v254h254v254h262v-264h-254v-254h-252v-500h496v256h264v-266h-254v-254h-516v254h-254z" />
<glyph unicode="&#xc0;" d="M264 1028h496v500h-496v-500zM256 2304v256h256v-256h256v-256h-256v256h-256zM0 0v1538h254v254h516v-254h254v-1538h-264v764h-496v-764h-264z" />
<glyph unicode="&#xc1;" d="M264 1028h496v500h-496v-500zM256 2048v256h256v256h256v-256h-256v-256h-256zM0 0v1538h254v254h516v-254h254v-1538h-264v764h-496v-764h-264z" />
<glyph unicode="&#xc2;" d="M264 1028h496v500h-496v-500zM0 2048v256h256v256h256v-256h256v256h-256v-256h-256v-256h-256zM0 0v1538h254v254h516v-254h254v-1538h-264v764h-496v-764h-264zM768 2304h256v-256h-256v256z" />
<glyph unicode="&#xc3;" d="M264 1028h496v500h-496v-500zM0 2048v256h256v256h256v-256h256v256h256v-256h-256v-256h-256v256h-256v-256h-256zM0 0v1538h254v254h516v-254h254v-1538h-264v764h-496v-764h-264z" />
<glyph unicode="&#xc4;" d="M760 2040v264h264v-264h-264zM264 1030h496v500h-496v-500zM0 2040v264h264v-264h-264zM0 0v1540h254v254h516v-254h254v-1540h-264v764h-496v-764h-264z" />
<glyph unicode="&#xc5;" d="M264 1028h496v500h-496v-500zM0 2304v256h256v256h256v-256h256v-256h-256v256h-256v-256h256v-256h-256v256h-256zM0 0v1538h254v254h516v-254h254v-1538h-264v764h-496v-764h-264z" />
<glyph unicode="&#xc6;" horiz-adv-x="2048" d="M264 1028h500v500h-500v-500zM0 0v1538h254v254h518v-254h246v254h518v-264h-508v-500h508v-264h-508v-500h508v-264h-772v764h-500v-764h-264z" />
<glyph unicode="&#xc7;" d="M0 506v1288h252v254h520v-254h252v-274h-270v254h-484v-1248h484v254h270v-274h-252v-244h252v-264h-254v-254l-254 -2v-254h-262v264h254v256h252v246h-508v252h-252z" />
<glyph unicode="&#xc8;" horiz-adv-x="1280" d="M0 2296v264h262v-256h254v-264h-264v256h-252zM0 0v1794h768v-264h-506v-500h506v-264h-506v-502h506v-264h-768z" />
<glyph unicode="&#xc9;" horiz-adv-x="1280" d="M252 2040v264h254v256h262v-264h-252v-256h-264zM0 0v1794h768v-264h-506v-500h506v-264h-506v-502h506v-264h-768z" />
<glyph unicode="&#xca;" horiz-adv-x="1280" d="M0 2040v264h252v256h264v-256h252v-264h-262v256h-244v-256h-262zM0 0v1794h768v-272h-498v-488h498v-274h-498v-486h498v-274h-768z" />
<glyph unicode="&#xcb;" horiz-adv-x="1280" d="M506 2040v264h262v-264h-262zM0 2040v264h262v-264h-262zM0 0v1794h768v-274h-498v-486h498v-274h-498v-486h498v-274h-768z" />
<glyph unicode="&#xcc;" horiz-adv-x="1024" d="M252 0v1028h260v-1028h-260zM0 1528v264h260v-254h252v-266h-260v256h-252z" />
<glyph unicode="&#xcd;" horiz-adv-x="1024" d="M0 1272v266h252v254h260v-264h-252v-256h-260zM0 0v1028h260v-1028h-260z" />
<glyph unicode="&#xce;" horiz-adv-x="1280" d="M252 0v1284h264v-1284h-264zM0 1528v266h252v254h264v-254h252v-266h-262v256h-244v-256h-262z" />
<glyph unicode="&#xcf;" horiz-adv-x="1280" d="M506 1528v264h262v-264h-262zM252 0v1282h264v-1282h-264zM0 1528v264h262v-264h-262z" />
<glyph unicode="&#xd0;" horiz-adv-x="1792" d="M520 264h496v1264h-496v-504h-8v-256h8v-504zM0 768v256h256v768h770v-254h254v-1284h-254v-254h-770v768h-256zM520 1024v-256h248v256h-248z" />
<glyph unicode="&#xd1;" d="M0 2048v256h256v256h256v-256h256v256h256v-256h-256v-256h-256v256h-256v-256h-256zM0 0v1792h264v-510h252v-254h244v764h264v-1792h-264v764h-252v254h-244v-1018h-264z" />
<glyph unicode="&#xd2;" d="M264 264h496v1264h-496v-1264zM256 2304v256h256v-256h256v-256h-256v256h-256zM0 254v1284h254v254h516v-254h254v-1284h-254v-254h-516v254h-254z" />
<glyph unicode="&#xd3;" d="M264 264h496v1264h-496v-1264zM256 2048v256h256v256h256v-256h-256v-256h-256zM0 254v1284h254v254h516v-254h254v-1284h-254v-254h-516v254h-254z" />
<glyph unicode="&#xd4;" d="M264 264h496v1264h-496v-1264zM0 2048v256h256v256h256v-256h256v256h-256v-256h-256v-256h-256zM0 254v1284h254v254h516v-254h254v-1284h-254v-254h-516v254h-254zM768 2304h256v-256h-256v256z" />
<glyph unicode="&#xd5;" d="M264 264h496v1264h-496v-1264zM0 2048v256h256v256h256v-256h256v256h256v-256h-256v-256h-256v256h-256v-256h-256zM0 254v1284h254v254h516v-254h254v-1284h-254v-254h-516v254h-254z" />
<glyph unicode="&#xd6;" d="M760 2040v264h264v-264h-264zM270 274h484v1246h-484v-1246zM0 2040v264h264v-264h-264zM0 254v1286h252v254h520v-254h252v-1286h-252v-254h-520v254h-252z" />
<glyph unicode="&#xd7;" horiz-adv-x="2048" d="M0 0v264h254v254h254v500h-254v254h-254v264h264v-254h254v-254h500v254h254v254h264v-264h-254v-254h-254v-500h254v-254h254v-264h-264v254h-254v254h-500v-254h-254v-254h-264z" />
<glyph unicode="&#xd8;" horiz-adv-x="2048" d="M518 772h246v256h254v244h-500v-500zM518 264h500v500h-246v-256h-254v-244zM0 0v264h254v1018h254v254h520v-254h244v254h264v-264h-254v-1018h-254v-254h-520v254h-244v-254h-264z" />
<glyph unicode="&#xd9;" d="M256 2304v256h256v-256h256v-256h-256v256h-256zM0 254v1538h264v-1528h496v1528h264v-1538h-254v-254h-516v254h-254z" />
<glyph unicode="&#xda;" d="M256 2048v256h256v256h256v-256h-256v-256h-256zM0 254v1538h264v-1528h496v1528h264v-1538h-254v-254h-516v254h-254z" />
<glyph unicode="&#xdb;" d="M0 2048v256h256v256h256v-256h256v256h-256v-256h-256v-256h-256zM0 254v1538h264v-1528h496v1528h264v-1538h-254v-254h-516v254h-254zM768 2304h256v-256h-256v256z" />
<glyph unicode="&#xdc;" d="M760 2040v264h264v-264h-264zM0 2040v264h264v-264h-264zM0 254v1540h270v-1520h484v1520h270v-1540h-252v-254h-520v254h-252z" />
<glyph unicode="&#xdd;" horiz-adv-x="1792" d="M256 2048v256h256v256h256v-256h-256v-256h-256zM0 1272v520h264v-510h254v-254h244v254h254v510h264v-520h-254v-254h-254v-1018h-264v1018h-254v254h-254z" />
<glyph unicode="&#xde;" horiz-adv-x="1792" d="M264 520h752v498h-752v-498zM0 0v1792h264v-510h762v-254h254v-518h-254v-256h-762v-254h-264z" />
<glyph unicode="&#xdf;" d="M508 764v264h252v-10h10v-244h254v-254h-264v244h-252zM508 0v264h252v-10h10v-254h-262zM760 1272v-244h10v-10h254v254h-264zM760 1282v246h10v10h254v-256h-264zM760 510v-246h10v-10h254v256h-264zM770 1538v254h-254v-264h244v10h10zM508 1528h-244h-10v4h10v6h-10 v254h254v-264zM254 1528v4v6h-254v-256h254v246zM264 1278h-10v4h10v-4zM264 1272v-244h-264v244h264zM0 1018v-244h4h254v-10h6v-244h-6v-10h-254v10h-4v244h4v10h254h6v244h-264zM258 510h-254h-4v-246h264v246h-6zM264 254v-254h-264v254h264z" />
<glyph unicode="&#xe0;" d="M264 264h496v752h-496v-752zM256 1792v256h256v-256h256v-256h-256v256h-256zM0 254v772h254v254h516v-254h254v-1026h-770v254h-254z" />
<glyph unicode="&#xe1;" d="M264 264h496v752h-496v-752zM256 1536v256h256v256h256v-256h-256v-256h-256zM0 254v772h254v254h516v-254h254v-1026h-770v254h-254z" />
<glyph unicode="&#xe2;" d="M264 264h496v752h-496v-752zM0 1536v256h256v256h256v-256h256v256h-256v-256h-256v-256h-256zM0 254v772h254v254h516v-254h254v-1026h-770v254h-254zM768 1792h256v-256h-256v256z" />
<glyph unicode="&#xe3;" d="M264 264h496v752h-496v-752zM0 1536v256h256v256h256v-256h256v256h256v-256h-256v-256h-256v256h-256v-256h-256zM0 254v772h254v254h516v-254h254v-1026h-770v254h-254z" />
<glyph unicode="&#xe4;" d="M760 1528v264h264v-264h-264zM270 272h484v738h-484v-738zM254 1528v264h262v-264h-262zM0 252v778h252v252h772v-1282h-772v252h-252z" />
<glyph unicode="&#xe5;" d="M264 264h496v752h-496v-752zM0 1792v256h256v256h256v-256h256v256h-256v-256h-256v-256h256v-256h256v256h-256v-256h-256v256h-256zM0 254v772h254v254h516v-254h254v-1026h-770v254h-254zM768 2048h256v-256h-256v256z" />
<glyph unicode="&#xe6;" horiz-adv-x="2304" d="M1028 772h500v244h-500v-244zM264 264h500v752h-500v-752zM0 254v772h254v254h520v-254h244v254h520v-254h254v-518h-764v-244h764v-264h-1538v254h-254z" />
<glyph unicode="&#xe7;" horiz-adv-x="1280" d="M0 510v772h252v254h516v-264h-506v-752h506v-264v-256h-256v256h-260v254h-252zM512 0v-256h-256v256h256z" />
<glyph unicode="&#xe8;" d="M264 772h496v244h-496v-244zM256 1792v256h256v-256h256v-256h-256v256h-256zM0 254v772h254v254h516v-254h254v-518h-760v-244h760v-264h-770v254h-254z" />
<glyph unicode="&#xe9;" d="M264 772h496v244h-496v-244zM256 1536v256h256v256h256v-256h-256v-256h-256zM0 254v772h254v254h516v-254h254v-518h-760v-244h760v-264h-770v254h-254z" />
<glyph unicode="&#xea;" d="M264 772h496v244h-496v-244zM0 1536v256h256v256h256v-256h256v256h-256v-256h-256v-256h-256zM0 254v772h254v254h516v-254h254v-518h-760v-244h760v-264h-770v254h-254zM768 1792h256v-256h-256v256z" />
<glyph unicode="&#xeb;" d="M768 1536v256h256v-256h-256zM264 772h496v244h-496v-244zM0 1536v256h256v-256h-256zM0 254v772h254v254h516v-254h254v-518h-760v-244h760v-264h-770v254h-254z" />
<glyph unicode="&#xec;" horiz-adv-x="1024" d="M252 0v1284h260v-1284h-260zM0 1784v264h260v-254h252v-266h-260v256h-252z" />
<glyph unicode="&#xed;" horiz-adv-x="1024" d="M0 1528v266h252v254h260v-264h-252v-256h-260zM0 0v1284h260v-1284h-260z" />
<glyph unicode="&#xee;" horiz-adv-x="1280" d="M252 0v1284h264v-1284h-264zM0 1528v266h252v254h264v-254h252v-266h-262v256h-244v-256h-262z" />
<glyph unicode="&#xef;" horiz-adv-x="1280" d="M506 1528v264h262v-264h-262zM252 0v1282h264v-1282h-264zM0 1528v264h262v-264h-262z" />
<glyph unicode="&#xf0;" d="M264 264h496v752h-496v-752zM256 2048v256h256v-256h256v-256h-256v256h-256zM0 1280v256h256v256h256v-256h-256v-256h514v-254h254v-772h-254v-254h-516v254h-254v772h254v254h-254z" />
<glyph unicode="&#xf1;" d="M0 1536v256h256v256h256v-256h256v256h256v-256h-256v-256h-256v256h-256v-256h-256zM0 0v1280h770v-254h254v-1026h-264v1016h-496v-1016h-264z" />
<glyph unicode="&#xf2;" d="M264 264h496v752h-496v-752zM256 1792v256h256v-256h256v-256h-256v256h-256zM0 254v772h254v254h516v-254h254v-772h-254v-254h-516v254h-254z" />
<glyph unicode="&#xf3;" d="M264 264h496v752h-496v-752zM256 1536v256h256v256h256v-256h-256v-256h-256zM0 254v772h254v254h516v-254h254v-772h-254v-254h-516v254h-254z" />
<glyph unicode="&#xf4;" d="M264 264h496v752h-496v-752zM0 1536v256h256v256h256v-256h256v256h-256v-256h-256v-256h-256zM0 254v772h254v254h516v-254h254v-772h-254v-254h-516v254h-254zM768 1792h256v-256h-256v256z" />
<glyph unicode="&#xf5;" d="M264 264h496v752h-496v-752zM0 1536v256h256v256h256v-256h256v256h256v-256h-256v-256h-256v256h-256v-256h-256zM0 254v772h254v254h516v-254h254v-772h-254v-254h-516v254h-254z" />
<glyph unicode="&#xf6;" d="M760 1528v264h264v-264h-264zM270 272h484v738h-484v-738zM0 1528v264h264v-264h-264zM0 252v778h252v252h520v-252h252v-778h-252v-252h-520v252h-252z" />
<glyph unicode="&#xf7;" horiz-adv-x="1792" d="M508 1272v264h264v-264h-264zM508 256v264h264v-264h-264zM0 764v264h1280v-264h-1280z" />
<glyph unicode="&#xf8;" horiz-adv-x="2048" d="M518 772h246v256h254v244h-500v-500zM518 264h500v500h-246v-256h-254v-244zM0 0v264h254v1018h254v254h520v-254h244v254h264v-264h-254v-1018h-254v-254h-520v254h-244v-254h-264z" />
<glyph unicode="&#xf9;" d="M256 1792v256h256v-256h256v-256h-256v256h-256zM0 252v1028h270v-1008h484v1008h270v-1280h-772v252h-252z" />
<glyph unicode="&#xfa;" d="M256 1536v256h256v256h256v-256h-256v-256h-256zM0 252v1028h270v-1008h484v1008h270v-1280h-772v252h-252z" />
<glyph unicode="&#xfb;" d="M0 1536v256h256v256h256v-256h256v256h-256v-256h-256v-256h-256zM0 252v1028h270v-1008h484v1008h270v-1280h-772v252h-252zM768 1792h256v-256h-256v256z" />
<glyph unicode="&#xfc;" d="M760 1528v264h264v-264h-264zM0 1528v264h264v-264h-264zM0 250v1032h279v-1001h466v1001h279v-1282h-776v250h-248z" />
<glyph unicode="&#xfd;" d="M256 1536v256h256v256h256v-256h-256v-256h-256zM0 252v1028h264v-1018h496v1018h264v-1538h-254v-254h-516v264h506v246h-506v254h-254z" />
<glyph unicode="&#xfe;" d="M264 520h496l-496 498v-498zM0 0v1792h264v-510h506v-254h254v-518h-254v-256h-506v-254h-264z" />
<glyph unicode="&#xff;" d="M768 1536v256h256v-256h-256zM0 1536v256h256v-256h-256zM0 252v1028h264v-1018h496v1018h264v-1538h-254v-254h-516v264h506v246h-506v254h-254z" />
<glyph unicode="&#x152;" horiz-adv-x="3072" d="M1536 0v1792h1024v-264h-760v-500h760v-264h-760v-500h760v-264h-1024zM264 264h496v1264h-496v-1264zM0 254v1284h254v254h516v-254h254v-1284h-254v-254h-516v254h-254z" />
<glyph unicode="&#x153;" horiz-adv-x="3072" d="M1800 772h496v244h-496v-244zM1536 254v772h254v254h516v-254h254v-518h-760v-244h506v-264h-516v254h-254zM264 264h496v752h-496v-752zM0 254v772h254v254h516v-254h254v-772h-254v-254h-516v254h-254z" />
<glyph unicode="&#x178;" horiz-adv-x="1792" d="M762 1915v256h262v-256h-262zM256 1915v256h262v-256h-262zM0 1272v520h264v-510h254v-254h244v254h254v510h264v-520h-254v-254h-254v-1018h-264v1018h-254v254h-254z" />
<glyph unicode="&#x2c6;" horiz-adv-x="1280" d="M0 1280v260h252v252h264v-252h252v-260h-262v252h-244v-252h-262z" />
<glyph unicode="&#x2dc;" horiz-adv-x="768" d="M-512 123v260h254v252h262v-252h244v252h264v-260h-254v-252h-262v252h-244v-252h-264z" />
<glyph unicode="&#x2000;" horiz-adv-x="1406" />
<glyph unicode="&#x2001;" horiz-adv-x="2816" />
<glyph unicode="&#x2002;" horiz-adv-x="1406" />
<glyph unicode="&#x2003;" horiz-adv-x="2816" />
<glyph unicode="&#x2004;" horiz-adv-x="937" />
<glyph unicode="&#x2005;" horiz-adv-x="702" />
<glyph unicode="&#x2006;" horiz-adv-x="468" />
<glyph unicode="&#x2007;" horiz-adv-x="468" />
<glyph unicode="&#x2008;" horiz-adv-x="350" />
<glyph unicode="&#x2009;" horiz-adv-x="563" />
<glyph unicode="&#x200a;" horiz-adv-x="155" />
<glyph unicode="&#x2010;" d="M0 768v256h1024v-256h-1024z" />
<glyph unicode="&#x2011;" d="M0 768v256h1024v-256h-1024z" />
<glyph unicode="&#x2012;" d="M0 768v256h1024v-256h-1024z" />
<glyph unicode="&#x2013;" horiz-adv-x="1024" d="M205 512v205h614v-205h-614z" />
<glyph unicode="&#x2014;" horiz-adv-x="2048" d="M205 512v205h1638v-205h-1638z" />
<glyph unicode="&#x2018;" horiz-adv-x="1024" d="M0 1532v260h260v-252h252v-260h-260v252h-252z" />
<glyph unicode="&#x2019;" horiz-adv-x="768" d="M0 1280v512h256v-512h-256z" />
<glyph unicode="&#x201c;" horiz-adv-x="1280" d="M506 1280v512h262v-512h-262zM0 1280v512h262v-512h-262z" />
<glyph unicode="&#x201d;" horiz-adv-x="1280" d="M506 1280v512h262v-512h-262zM0 1280v512h262v-512h-262z" />
<glyph unicode="&#x2026;" horiz-adv-x="2304" d="M1536 0v256h256v-256h-256zM768 0v256h256v-256h-256zM0 0v256h256v-256h-256z" />
<glyph unicode="&#x202f;" horiz-adv-x="563" />
<glyph unicode="&#x2039;" horiz-adv-x="1280" d="M0 764v264h252v254h254v254h262v-264h-252v-254h-254v-244h254v-254h252v-264h-262v254h-254v254h-252z" />
<glyph unicode="&#x203a;" horiz-adv-x="1280" d="M0 256v264h252v254h254v244h-254v254h-252v264h262v-254h254v-254h252v-264h-252v-254h-254v-254h-262z" />
<glyph unicode="&#x205f;" horiz-adv-x="702" />
<glyph unicode="&#x2122;" horiz-adv-x="3584" d="M1792 0v1792h264v-510h254v-254h244v254h254v510h264v-1792h-264v1018h-244v-254h-264v254h-244v-1018h-264zM0 1528v264h1280v-264h-508v-1528h-264v1528h-508z" />
<glyph unicode="&#xe000;" horiz-adv-x="1280" d="M0 1280h1280v-1280h-1280v1280z" />
<glyph unicode="&#xfb01;" horiz-adv-x="1792" d="M1024 1528v264h256v-264h-256zM1024 0v1282h256v-1282h-256zM0 0v1538h252v254h260v-264h-252v-500h252v-264h-252v-756h4v-6h-4v-2h-260z" />
<glyph unicode="&#xfb02;" horiz-adv-x="2048" d="M1024 254v1538h260v-1528h252v-264h-260v254h-252zM0 0v1538h252v254h260v-264h-252v-500h252v-264h-252v-756h4v-6h-4v-2h-260z" />
<glyph unicode="&#xfb03;" horiz-adv-x="2816" d="M2048 1528v264h256v-264h-256zM2048 0v1282h256v-1282h-256zM1024 0v1538h252v254h260v-264h-252v-500h252v-264h-252v-756h4v-6h-4v-2h-260zM0 0v1538h252v254h260v-264h-252v-500h252v-264h-252v-756h4v-6h-4v-2h-260z" />
<glyph unicode="&#xfb04;" horiz-adv-x="3072" d="M2048 254v1538h260v-1528h252v-264h-260v254h-252zM1024 0v1538h252v254h260v-264h-252v-500h252v-264h-252v-756h4v-6h-4v-2h-260zM0 0v1538h252v254h260v-264h-252v-500h252v-264h-252v-756h4v-6h-4v-2h-260z" />
</font>
</defs>
</svg>
